<?xml version="1.0" standalone="no"?>
<!DOCTYPE svg PUBLIC "-//W3C//DTD SVG 20010904//EN"
 "http://www.w3.org/TR/2001/REC-SVG-20010904/DTD/svg10.dtd">
<svg version="1.0" xmlns="http://www.w3.org/2000/svg"
 width="128.000000pt" height="128.000000pt" viewBox="0 0 128.000000 128.000000"
 preserveAspectRatio="xMidYMid meet">

<g transform="translate(0.000000,128.000000) scale(0.100000,-0.100000)"
fill="#000000" stroke="none">
<path d="M0 640 l0 -640 640 0 640 0 0 640 0 640 -640 0 -640 0 0 -640z m760
540 c10 0 27 -46 34 -95 6 -35 5 -38 -7 -23 -16 20 -27 14 -27 -14 0 -24 39
-78 57 -78 7 0 52 -37 100 -82 82 -78 88 -85 86 -121 -2 -23 3 -40 11 -43 12
-5 18 -34 7 -34 -3 0 -19 28 -36 61 -31 63 -121 169 -143 169 -7 0 -10 -5 -6
-11 3 -6 -12 0 -34 12 -22 13 -39 25 -37 28 3 2 16 -4 31 -13 14 -10 28 -15
31 -12 10 10 -62 46 -117 57 -128 27 -258 -17 -350 -118 -79 -86 -95 -123 -94
-218 0 -61 6 -93 24 -135 27 -62 51 -99 64 -100 5 0 3 6 -3 13 -6 8 -17 29
-25 49 -12 28 -12 35 -1 35 7 0 11 -6 8 -14 -6 -15 15 -45 27 -38 5 3 6 -3 4
-13 -3 -10 7 -28 25 -46 16 -15 27 -35 24 -42 -3 -8 0 -14 7 -14 6 0 9 4 6 9
-7 11 22 23 35 15 5 -3 9 0 9 6 0 6 6 8 13 4 9 -5 9 -4 -1 7 -7 7 -27 14 -45
14 -26 0 -32 4 -33 22 -1 13 3 23 8 23 4 0 1 12 -9 26 -9 15 8 2 38 -28 97
-97 216 -114 337 -49 33 19 46 23 30 11 -23 -18 -26 -25 -18 -41 9 -15 7 -19
-6 -19 -10 0 -14 5 -10 15 7 18 8 18 -44 0 -50 -17 -137 -20 -177 -4 -19 7
-29 7 -31 0 -2 -6 -7 -9 -12 -6 -4 3 -11 -2 -14 -11 -5 -12 -2 -15 9 -10 9 3
14 2 11 -3 -3 -4 17 -7 44 -5 28 1 50 -2 50 -7 0 -5 -10 -10 -22 -10 -14 -1
-9 -4 12 -8 23 -4 36 -2 38 5 4 15 46 26 50 14 11 -31 118 8 134 49 6 15 12
21 15 13 3 -6 10 -9 16 -5 7 3 4 -3 -6 -14 -20 -23 -119 -74 -148 -76 -10 -1
-19 -5 -19 -9 0 -8 46 -1 65 11 6 3 18 7 28 8 33 5 117 66 117 85 0 5 -5 6
-11 2 -8 -4 -8 0 0 15 13 24 23 28 15 6 -4 -9 0 -15 8 -15 31 0 118 189 118
256 0 13 5 24 11 24 5 0 8 -4 5 -9 -10 -15 19 -42 37 -35 22 8 22 19 -4 45
-24 24 -24 100 1 106 12 4 12 3 2 -5 -22 -15 -11 -85 15 -97 13 -5 25 -15 27
-21 6 -17 -5 -55 -14 -49 -4 3 -19 -5 -34 -16 -29 -23 -35 -66 -11 -75 8 -4
15 -10 15 -15 0 -5 -9 -4 -20 3 -18 11 -23 10 -40 -12 -33 -42 -43 -95 -25
-131 9 -16 14 -40 12 -52 -4 -19 -4 -19 -6 3 -1 25 -17 50 -32 50 -4 0 -19
-20 -33 -44 -36 -62 -34 -123 2 -93 13 10 14 9 7 -3 -14 -23 -16 -110 -2 -111
7 -1 37 -3 67 -6 30 -2 63 -5 73 -6 9 -1 17 -5 17 -10 0 -5 -11 -7 -25 -5 -13
3 -26 0 -28 -6 -3 -8 -8 -7 -19 1 -11 10 -17 10 -26 1 -7 -7 -12 -9 -12 -5 0
4 -9 3 -21 -3 -39 -21 -527 -29 -589 -9 -3 0 -18 0 -34 -1 -20 -1 -26 2 -21
11 6 8 4 10 -6 4 -17 -11 -71 -7 -84 6 -7 7 -5 13 5 19 23 15 40 12 41 -7 1
-17 2 -17 6 -1 3 13 15 18 39 18 32 0 34 2 34 32 0 17 8 40 18 51 16 19 16 20
-6 34 -26 18 -28 44 -7 77 14 21 13 25 -17 64 -18 23 -36 42 -41 42 -4 0 -14
-14 -21 -31 -12 -30 -13 -27 -10 39 3 76 -14 157 -41 194 l-17 23 6 -30 c5
-22 4 -26 -4 -15 -13 19 -13 67 0 75 6 3 10 27 11 53 l1 47 9 -34 c11 -35 17
-37 22 -5 2 10 11 33 20 51 9 18 17 40 17 50 0 10 7 29 16 41 26 38 8 37 -40
-3 -32 -26 -46 -45 -49 -68 l-4 -32 -1 32 c-2 27 9 43 73 108 57 58 75 71 75
55 0 -11 5 -20 10 -20 13 0 73 30 80 40 3 4 12 10 20 13 8 3 0 6 -18 6 -19 1
-39 9 -49 20 -9 11 -20 18 -25 15 -12 -8 -10 10 4 24 16 16 33 15 19 -1 -12
-15 3 -37 26 -37 16 0 56 36 71 65 10 18 11 18 12 2 0 -10 -5 -27 -10 -38 -14
-25 -5 -39 21 -32 13 4 18 11 14 20 -3 11 -1 13 10 9 8 -3 23 -9 32 -13 19 -7
-24 55 -65 95 -20 19 -21 22 -5 22 10 0 33 -9 52 -21 47 -28 98 -19 112 20 11
30 45 53 67 45 8 -2 17 -4 22 -4z m84 -190 c11 -8 38 -25 60 -37 52 -28 39
-30 -17 -2 -52 27 -87 58 -87 78 1 12 3 11 12 -4 6 -11 21 -27 32 -35z m-54
-92 c0 -4 -4 -8 -9 -8 -6 0 -12 4 -15 8 -3 5 1 9 9 9 8 0 15 -4 15 -9z m85
-18 c10 -11 16 -20 13 -20 -3 0 -13 9 -23 20 -10 11 -16 20 -13 20 3 0 13 -9
23 -20z m-30 -30 c2 -25 -13 -25 -45 1 -23 19 -23 20 -3 14 12 -3 24 -1 28 5
9 15 18 5 20 -20z m-635 -399 c0 -5 -7 -12 -16 -15 -14 -5 -15 -4 -4 9 14 17
20 19 20 6z m376 -16 c24 -18 38 -19 28 -2 -5 8 -3 8 9 -2 9 -7 14 -17 11 -22
-10 -17 -49 -9 -79 16 -27 22 -28 24 -9 25 11 0 29 -7 40 -15z m134 -115 c0
-5 -4 -10 -10 -10 -5 0 -10 5 -10 10 0 6 5 10 10 10 6 0 10 -4 10 -10z"/>
<path d="M688 1133 c-7 -16 -20 -38 -31 -50 -21 -24 -15 -72 7 -54 8 7 22 4
44 -9 44 -27 53 -25 46 10 -4 17 -1 36 5 44 18 21 2 66 -26 77 -33 12 -32 13
-45 -18z"/>
<path d="M421 414 c0 -11 3 -14 6 -6 3 7 2 16 -1 19 -3 4 -6 -2 -5 -13z"/>
<path d="M356 401 c-4 -6 3 -15 14 -21 23 -12 27 2 6 19 -9 8 -16 8 -20 2z"/>
<path d="M457 344 c23 -17 33 -17 33 -1 0 6 -11 13 -26 13 -23 2 -24 1 -7 -12z"/>
<path d="M444 315 c27 -21 105 -49 113 -41 10 10 -3 18 -31 20 -14 0 -26 4
-26 7 0 7 -47 29 -63 29 -7 0 -3 -7 7 -15z"/>
<path d="M874 285 c-11 -27 2 -37 14 -11 7 16 8 26 1 26 -5 0 -12 -7 -15 -15z"/>
<path d="M395 263 c4 -10 9 -27 12 -38 11 -47 15 -51 24 -26 10 26 3 62 -15
73 -19 13 -28 9 -21 -9z"/>
<path d="M590 270 c0 -5 5 -10 11 -10 5 0 7 5 4 10 -3 6 -8 10 -11 10 -2 0 -4
-4 -4 -10z"/>
<path d="M350 253 c0 -10 12 -26 25 -36 29 -21 29 -21 14 22 -12 33 -39 43
-39 14z"/>
<path d="M755 241 c-6 -11 29 -33 39 -24 7 7 -12 33 -25 33 -4 0 -10 -4 -14
-9z"/>
<path d="M850 235 c0 -11 10 -31 21 -45 l21 -25 -7 30 c-3 17 -13 37 -21 45
-12 12 -14 12 -14 -5z"/>
<path d="M490 231 c0 -3 9 -12 19 -18 15 -10 21 -10 25 0 3 8 9 7 19 -6 11
-13 17 -15 22 -7 4 7 2 17 -4 23 -12 12 -81 19 -81 8z"/>
<path d="M377 179 c-9 -19 13 -91 31 -97 17 -5 15 23 -2 38 -8 6 -16 26 -18
43 -3 23 -6 27 -11 16z"/>
<path d="M713 166 c5 -16 27 -19 27 -3 0 7 -7 14 -15 14 -9 0 -14 -5 -12 -11z"/>
<path d="M741 125 c-13 -36 -9 -55 13 -55 8 0 12 14 12 39 -1 53 -9 58 -25 16z"/>
<path d="M495 108 c3 -40 5 -43 35 -45 l31 -3 -32 45 c-18 25 -34 45 -35 45
-1 0 -1 -19 1 -42z"/>
<path d="M877 123 c-10 -16 3 -43 20 -43 11 0 13 4 6 13 -6 6 -12 19 -15 27
-3 9 -7 10 -11 3z"/>
</g>
</svg>
